<svg width="16" height="15" viewBox="0 0 16 15" fill="none" xmlns="http://www.w3.org/2000/svg">
<path d="M6.73267 12.1713C7.9305 12.1713 9.05298 11.8097 9.98714 11.192L13.2868 14.4992C13.5053 14.7101 13.784 14.8156 14.0854 14.8156C14.7106 14.8156 15.1702 14.3259 15.1702 13.7081C15.1702 13.4219 15.0722 13.1431 14.8613 12.9322L11.5842 9.64007C12.2622 8.67578 12.6615 7.50809 12.6615 6.24247C12.6615 2.98047 9.99467 0.313615 6.73267 0.313615C3.47821 0.313615 0.803821 2.98047 0.803821 6.24247C0.803821 9.50446 3.47067 12.1713 6.73267 12.1713ZM6.73267 10.5893C4.34456 10.5893 2.38585 8.63058 2.38585 6.24247C2.38585 3.85435 4.34456 1.89565 6.73267 1.89565C9.12079 1.89565 11.0795 3.85435 11.0795 6.24247C11.0795 8.63058 9.12079 10.5893 6.73267 10.5893Z" fill="#333333"/>
</svg>
