<svg width="23" height="23" viewBox="0 0 23 23" fill="none" xmlns="http://www.w3.org/2000/svg">
<g clip-path="url(#clip0_1667_1138)">
<path d="M11.5194 -0.462402C12.1281 -0.462402 12.7309 -0.342496 13.2934 -0.10953C13.8558 0.123437 14.3668 0.464901 14.7973 0.895367C15.2278 1.32583 15.5692 1.83687 15.8022 2.3993C16.0352 2.96173 16.1551 3.56454 16.1551 4.17331V7.88188C16.1551 9.11135 15.6667 10.2905 14.7973 11.1598C13.9279 12.0292 12.7488 12.5176 11.5194 12.5176C10.2899 12.5176 9.11079 12.0292 8.24142 11.1598C7.37206 10.2905 6.88365 9.11135 6.88365 7.88188V4.17331C6.88365 2.94384 7.37206 1.76473 8.24142 0.895367C9.11079 0.0260018 10.2899 -0.462402 11.5194 -0.462402ZM3.22607 8.80903H5.09427C5.31891 10.3525 6.09175 11.7635 7.27141 12.7839C8.45108 13.8043 9.95869 14.3659 11.5184 14.3659C13.0782 14.3659 14.5858 13.8043 15.7655 12.7839C16.9451 11.7635 17.718 10.3525 17.9426 8.80903H19.8117C19.6009 10.6899 18.7572 12.4434 17.419 13.7818C16.0807 15.1202 14.3274 15.9641 12.4465 16.1752V19.9347H10.5922V16.1752C8.71118 15.9643 6.95762 15.1205 5.61919 13.7821C4.28076 12.4436 3.43692 10.6901 3.22607 8.80903Z" fill="#444E72"/>
</g>
<defs>
<clipPath id="clip0_1667_1138">
<rect width="22.2514" height="22.2514" fill="white"/>
</clipPath>
</defs>
</svg>
