<svg width="18" height="21" viewBox="0 0 18 21" fill="none" xmlns="http://www.w3.org/2000/svg">
<path d="M9.12572 2.8744L4.53637 7.46376C3.62879 8.37143 3.01074 9.52784 2.76038 10.7868C2.51001 12.0457 2.63858 13.3506 3.12981 14.5364C3.62104 15.7223 4.45288 16.7358 5.52014 17.4489C6.5874 18.162 7.84215 18.5426 9.12572 18.5426C10.4093 18.5426 11.664 18.162 12.7313 17.4489C13.7986 16.7358 14.6304 15.7223 15.1216 14.5364C15.6129 13.3506 15.7414 12.0457 15.4911 10.7868C15.2407 9.52784 14.6227 8.37143 13.7151 7.46376L9.12572 2.8744ZM9.12572 0.252441L15.0261 6.15278C16.193 7.31975 16.9877 8.80656 17.3097 10.4252C17.6316 12.0438 17.4664 13.7216 16.8348 15.2463C16.2033 16.771 15.1338 18.0742 13.7615 18.9911C12.3893 19.9079 10.7761 20.3973 9.12572 20.3973C7.47538 20.3973 5.8621 19.9079 4.4899 18.9911C3.11769 18.0742 2.04818 16.771 1.41662 15.2463C0.785055 13.7216 0.619805 12.0438 0.941762 10.4252C1.26372 8.80656 2.05843 7.31975 3.22539 6.15278L9.12572 0.252441Z" fill="#333333"/>
</svg>
