<svg width="20" height="20" viewBox="0 0 20 20" fill="none" xmlns="http://www.w3.org/2000/svg">
<path d="M8.73502 14.5099H2.70859V12.6556H8.73502C9.32723 12.6558 9.90809 12.8181 10.4147 13.1248C10.9212 13.4316 11.3342 13.8711 11.6089 14.3958C11.8835 14.9204 12.0093 15.5103 11.9726 16.1014C11.936 16.6924 11.7383 17.2622 11.401 17.749C11.0637 18.2357 10.5996 18.6209 10.059 18.8627C9.51839 19.1045 8.92194 19.1938 8.33424 19.1209C7.74653 19.0479 7.18999 18.8156 6.72492 18.4489C6.25985 18.0823 5.90397 17.5954 5.69585 17.041L7.43239 16.3892C7.52156 16.6268 7.67406 16.8355 7.87336 16.9927C8.07267 17.1498 8.31118 17.2494 8.56305 17.2807C8.81492 17.312 9.07055 17.2737 9.30224 17.1701C9.53393 17.0665 9.73284 16.9014 9.87743 16.6928C10.022 16.4842 10.1068 16.2401 10.1225 15.9867C10.1382 15.7334 10.0843 15.4806 9.96663 15.2557C9.84894 15.0309 9.67197 14.8425 9.45487 14.711C9.23777 14.5795 8.98883 14.51 8.73502 14.5099ZM3.63574 8.94701H16.1522C16.7444 8.94722 17.3252 9.10949 17.8318 9.41623C18.3384 9.72298 18.7514 10.1625 19.026 10.6872C19.3006 11.2119 19.4264 11.8017 19.3898 12.3928C19.3532 12.9839 19.1555 13.5536 18.8181 14.0404C18.4808 14.5271 18.0167 14.9123 17.4761 15.1541C16.9355 15.396 16.3391 15.4852 15.7514 15.4123C15.1637 15.3394 14.6071 15.107 14.1421 14.7404C13.677 14.3737 13.3211 13.8868 13.113 13.3324L14.8495 12.6806C14.9387 12.9182 15.0912 13.1269 15.2905 13.2841C15.4898 13.4412 15.7283 13.5408 15.9802 13.5721C16.2321 13.6034 16.4877 13.5652 16.7194 13.4615C16.9511 13.3579 17.15 13.1929 17.2946 12.9843C17.4392 12.7757 17.5239 12.5315 17.5396 12.2782C17.5554 12.0248 17.5015 11.772 17.3838 11.5472C17.2661 11.3223 17.0891 11.1339 16.872 11.0024C16.6549 10.871 16.406 10.8014 16.1522 10.8013H3.63574C2.89806 10.8013 2.19059 10.5083 1.66897 9.98663C1.14735 9.46501 0.854309 8.75755 0.854309 8.01987C0.854309 7.28218 1.14735 6.57472 1.66897 6.0531C2.19059 5.53148 2.89806 5.23844 3.63574 5.23844H11.5165C11.7703 5.23833 12.0192 5.16877 12.2363 5.03729C12.4534 4.90582 12.6304 4.71743 12.7481 4.49256C12.8657 4.26768 12.9196 4.01489 12.9039 3.76157C12.8882 3.50825 12.8034 3.26407 12.6589 3.05547C12.5143 2.84687 12.3154 2.68182 12.0837 2.5782C11.852 2.47457 11.5963 2.43633 11.3445 2.46761C11.0926 2.49889 10.8541 2.5985 10.6548 2.75565C10.4555 2.9128 10.303 3.12149 10.2138 3.35912L8.47728 2.70826C8.74473 1.99696 9.25327 1.40205 9.9143 1.02718C10.5753 0.652306 11.3469 0.521242 12.0946 0.656821C12.8424 0.7924 13.5188 1.18603 14.0061 1.76912C14.4935 2.35221 14.7608 3.0878 14.7615 3.84772C14.7615 4.70835 14.4196 5.53373 13.811 6.14228C13.2025 6.75084 12.3771 7.09272 11.5165 7.09272H3.63574C3.38984 7.09272 3.15402 7.1904 2.98015 7.36428C2.80628 7.53815 2.70859 7.77397 2.70859 8.01987C2.70859 8.26576 2.80628 8.50158 2.98015 8.67545C3.15402 8.84933 3.38984 8.94701 3.63574 8.94701Z" fill="#333333"/>
</svg>
